<svg version="1.1" xmlns="http://www.w3.org/2000/svg" xmlns:xlink="http://www.w3.org/1999/xlink" width="220.69511" height="289.73609" viewBox="0,0,220.69511,289.73609"><g transform="translate(-129.65245,-35.13196)"><g data-paper-data="{&quot;isPaintingLayer&quot;:true}" fill-rule="nonzero" stroke-linecap="butt" stroke-linejoin="miter" stroke-miterlimit="10" stroke-dasharray="" stroke-dashoffset="0" style="mix-blend-mode: normal"><path d="M129.65245,324.86805v-289.73609h220.69511v289.73609z" fill="#feff00" stroke="none" stroke-width="0"/><path d="M287.79758,122.65529c0,28.02372 -22.87438,50.74143 -51.09137,50.74143c-28.21698,0 -51.09137,-22.71771 -51.09137,-50.74143c0,-28.02372 22.87438,-50.74143 51.09137,-50.74143c28.21698,0 51.09137,22.71771 51.09137,50.74143z" fill="#000d1e" stroke="#000000" stroke-width="3"/><path d="M212.03184,93.9146h39.04498v76.34648c-1.76185,0.33717 -3.05629,1.23863 -4.16589,2.18434c-0.09883,0.03038 -0.1984,0.06098 -0.29874,0.09174c-1.11757,0.3426 -1.57017,2.00766 -3.16253,1.85186c-2.40253,-0.23507 -4.87301,-1.61324 -7.38881,-1.61324c-2.34781,0 -7.00853,0.20722 -10.78744,0.01922c-0.28734,-0.04388 -0.59217,-0.05726 -0.9072,-0.05435c-1.33513,-0.09483 -2.51421,-0.25033 -3.37611,-0.49691c-1.44963,-0.41472 -2.46409,-1.83684 -3.66814,-2.54995c-1.69598,-1.00446 -3.50205,-1.36454 -5.29013,-1.24884z" fill="#0017ff" stroke="none" stroke-width="0"/><path d="" fill="#0017ff" stroke="none" stroke-width="0"/><text transform="translate(151.89091,220.77369) scale(0.3458,0.35734)" font-size="40" xml:space="preserve" fill="#000d1e" fill-rule="nonzero" stroke="none" stroke-width="1" stroke-linecap="butt" stroke-linejoin="miter" stroke-miterlimit="10" stroke-dasharray="" stroke-dashoffset="0" font-family="Marker" font-weight="normal" text-anchor="start" style="mix-blend-mode: normal"><tspan x="0" dy="0">"this is my land, peasent!</tspan><tspan x="0" dy="48px">Not yours</tspan></text><text transform="translate(140.85553,293.72927) scale(0.35734,0.35734)" font-size="40" xml:space="preserve" fill="#000d1e" fill-rule="nonzero" stroke="none" stroke-width="1" stroke-linecap="butt" stroke-linejoin="miter" stroke-miterlimit="10" stroke-dasharray="" stroke-dashoffset="0" font-family="Marker" font-weight="normal" text-anchor="start" style="mix-blend-mode: normal"><tspan x="0" dy="0">Press green flag to try again</tspan></text></g></g></svg>