<svg version="1.1" xmlns="http://www.w3.org/2000/svg" xmlns:xlink="http://www.w3.org/1999/xlink" width="181.94655" height="184.82451" viewBox="0,0,181.94655,184.82451"><g transform="translate(-148.04975,-122.81058)"><g data-paper-data="{&quot;isPaintingLayer&quot;:true}" fill-rule="nonzero" stroke="#001026" stroke-linejoin="miter" stroke-miterlimit="10" stroke-dasharray="" stroke-dashoffset="0" style="mix-blend-mode: normal"><path d="M265.00892,301.54364c0,0 -16.17792,0.37307 -17.39904,-1.36072c-1.33827,-1.90013 9.68865,-9.58682 9.68865,-9.58682c0,0 9.78848,5.17173 13.84893,4.43144c4.78598,-0.87256 3.99428,-7.79479 4.46923,-9.59566c0.19474,-0.7384 -3.44438,-9.18497 -9.87613,-10.35618c-5.04825,-0.91928 -12.99068,5.52452 -14.25301,4.31198c-3.76982,-3.62113 10.87629,-7.99799 10.87629,-7.99799" data-paper-data="{&quot;index&quot;:null}" fill="none" stroke-width="7" stroke-linecap="round"/><g stroke-width="4.5"><path d="M234.8373,255.93752l35.12496,0.60352c0,0 -1.07196,17.18368 -14.99457,16.32425c-21.96419,-1.35584 -20.05674,-16.9953 -20.05674,-16.9953" fill="#ff0000" stroke-linecap="round"/><path d="M236.90705,255.38299l6.54172,-36.56154c0,0 5.9077,-3.46995 8.92436,-3.50974c3.1028,-0.04093 9.44131,3.26746 9.44131,3.26746l5.08801,36.80382z" fill="#001026" stroke-linecap="butt"/></g><g stroke-width="4.5" stroke-linecap="round"><path d="M224.9572,164.96907h-9.25472c0,0 -6.69252,3.21925 -11.24941,-1.49005c-2.37349,-2.45288 -3.45083,-12.313 -4.22976,-14.69075c-0.74649,-2.27873 10.80145,-5.48041 9.69791,-6.48157c-3.7023,-3.35878 -19.15505,0.03975 -19.15505,0.03975l-0.21026,-11.03307c0,0 6.14569,-5.64758 12.77802,-6.25281c6.04732,-0.55185 12.49923,3.80712 15.06592,6.1936c0.74049,0.6885 9.57587,1.16806 14.91389,3.00747c3.59075,1.23732 4.3424,3.80802 4.71387,4.76823c2.12046,5.48119 13.73884,11.33084 10.115,16.74728c-3.07099,4.59011 -21.33907,9.23875 -21.33907,9.23875" fill="#ffffff"/><path d="M218.78739,132.32051l-6.94103,10.54009l-6.42688,-2.0566l3.85613,-11.56839c0,0 4.64323,-0.53442 5.95714,-0.15296c1.34195,0.3896 3.55465,3.23786 3.55465,3.23786z" fill="#ff0000"/><path d="M219.68916,148.84413c0,0 2.65725,-5.93392 4.4827,-6.13234c2.08243,-0.22635 7.34277,4.84696 7.34277,4.84696c0,0 10.40551,6.50449 10.53075,8.00735c0.13153,1.57834 -9.75952,1.24736 -9.75952,1.24736l-10.79717,1.54245c0,0 -17.97026,-1.49543 -18.26881,-3.07349c-0.30127,-1.59241 16.46928,-6.43829 16.46928,-6.43829z" fill="#ff0000"/><path d="M198.22137,130.00684l0.77123,10.79717l-7.96934,1.54245l-0.25708,-10.79717z" fill="#ff0000"/></g><path d="M198.8294,197.14585c-4.18811,0 -30.14284,15.56977 -32.11723,11.17624c-0.5064,-1.12686 -20.93818,-15.65403 -15.48933,-21.49838c5.17433,-5.5499 36.23137,-2.40029 36.23137,-4.50713c0,-1.50762 -8.10642,1.35206 -11.63269,-1.75721c-4.53083,-3.99503 -4.70147,-14.00278 -4.30165,-15.10777c1.9672,-5.43672 23.33405,2.86096 27.94857,2.86096c1.23247,0 3.03903,-5.04603 4.09571,-5.11034c3.40306,-0.20711 5.17414,5.16399 6.20818,12.67718c-0.01474,-0.00237 -0.02275,-0.00236 -0.02275,-0.00236c-3.50474,0.023 8.40231,12.20912 4.90289,12.93292c-1.88299,0.38946 -19.17493,-10.45982 -21.05565,-10.45982h-0.91002c0,0 19.11964,3.27871 19.11964,7.65734c0,4.37863 -19.11964,1.09991 -19.11964,1.09991h0.91002c5.37744,0 10.76142,-2.51251 16.15276,-2.4731c0,0 0.01692,0 0.04674,-0.00725c0.07584,0.18812 0.20025,0.33018 0.33084,0.43562c-0.53247,9.14962 10.33982,20.90809 6.05457,21.43673c-1.03091,0.12718 -16.22159,-9.35355 -17.35233,-9.35355z" fill="#ffffff" stroke-width="4.5" stroke-linecap="butt"/><path d="M206.36838,165.85549l90.49119,-1.09217c0,0 2.19252,53.99441 -42.73857,53.22559c-51.13358,-0.87495 -46.98248,-52.67951 -46.98248,-52.67951" fill="#ffffff" stroke-width="4.5" stroke-linecap="round"/><path d="M208.85206,165.1739c0,0 21.77357,29.46535 29.30887,34.1072c7.94712,4.89554 1.67709,-14.94815 1.64436,-12.06763c-0.02542,2.23704 9.72935,-9.58337 3.47519,-7.67816c-8.91897,2.71699 -34.80496,18.77415 -34.80496,18.77415" fill="none" stroke-width="6.5" stroke-linecap="round"/><path d="M283.03802,199.30071c0,0 -4.7327,-22.57458 -10.05096,-24.8006c-8.11435,-3.39636 -18.02725,12.71231 -17.99362,9.75255c0.02597,-2.28571 28.49867,5.00308 33.67065,1.92639c8.27534,-4.92281 -5.24954,-20.0139 -5.24954,-20.0139" fill="none" stroke-width="6.5" stroke-linecap="round"/><path d="M256.75457,196.88784c2.91141,0 5.27157,1.9387 5.27157,4.33021c0,2.39152 -2.36016,4.33022 -5.27157,4.33022c-1.52284,0 -3.71151,8.05301 -8.2676,6.94813c-4.1544,-1.00747 -10.77457,-11.12136 -10.77457,-12.26197c0,-1.32999 35.48096,-14.34696 40.41059,-14.87123c2.84943,-0.30304 11.65413,11.77891 4.66787,15.21092c-1.24342,0.61083 -8.40091,14.27187 -14.23939,13.28332c-6.65399,-1.12664 -11.98673,-16.9696 -11.7969,-16.9696z" fill="#ff0000" stroke-width="4.5" stroke-linecap="butt"/><path d="M267.25968,229.0512l6.49522,4.27829c0,0 41.29444,19.68631 40.99052,27.22212c-0.47798,11.85136 -42.42206,13.71448 -40.57541,14.93084c0.78211,0.51516 49.45182,2.67593 52.2775,-3.07397c4.53072,-9.21944 -36.32571,-28.29838 -36.32571,-28.29838c0,0 19.04047,31.21715 23.21402,32.70541c4.80085,1.71196 -4.95024,-25.94287 -0.95604,-20.12079c1.56335,2.2788 -19.23323,15.03032 -18.69754,18.49658c1.19511,7.73314 22.34809,6.83349 23.84018,6.65726c3.53032,-0.41696 -27.7629,-13.76699 -26.36198,-24.93025c0.55991,-4.46162 22.56639,0.3873 30.71476,-2.64735c9.19638,-3.42496 4.62111,-14.45702 4.62111,-14.45702" fill="none" stroke-width="7" stroke-linecap="round"/><path d="M181.12442,215.89184c0,0 -14.0217,3.98801 -13.04281,6.29029c1.0695,2.51539 17.08438,3.44919 15.45312,5.6479c-1.20902,1.6296 1.2553,10.63716 -1.08866,11.70269c-4.36236,1.98306 -13.73905,-4.37072 -12.44273,-1.92758c0.86647,1.63302 9.65294,6.65118 9.05791,10.71859c-0.63248,4.32337 -10.5655,7.71688 -6.5357,9.86695c3.55023,1.8942 10.33411,-7.70559 16.45767,-8.14668c7.62191,-0.54902 14.37346,7.74841 14.37346,7.74841c0,0 -6.08405,-7.28978 -3.31223,-8.08549c3.91044,-1.12256 16.91476,3.79941 15.34859,0.55487c-0.39379,-0.8158 13.91715,2.67492 11.81564,0.15099c-2.46735,-2.96331 -21.56325,-12.00875 -24.68898,-13.27629c-3.03817,-1.23204 -5.95478,4.20253 -7.90888,3.04276c-4.64428,-2.75639 -1.46224,-4.99289 -1.52984,-6.5055c-0.0793,-1.77458 -5.43939,10.63094 -4.6411,9.79206c2.53224,-2.66096 14.14126,-15.17961 15.70193,-16.32779c0.60566,-0.44557 -14.61683,-3.56355 -13.57731,-4.41726c2.14493,-1.76153 21.01636,-1.12561 23.06936,1.76492c1.18195,1.66413 -0.4652,14.02151 1.2801,14.95147c2.25622,1.20219 3.86056,-11.06895 6.62442,-11.5452c4.05963,-0.69952 9.01248,9.89395 9.01248,9.89395c0,0 -1.02269,-17.74714 0.22772,-18.66705c1.19347,-0.87803 7.11188,13.26738 7.11188,13.26738" fill="none" stroke-width="7" stroke-linecap="round"/><path d="M237.84916,269.48449c0,0 10.15501,5.10973 8.31944,7.08142c-2.21672,2.38111 -16.44234,1.84189 -15.68359,3.80863c1.29528,3.35744 15.42998,10.01706 15.42998,10.01706c0,0 -13.13705,-2.53893 -14.09667,-0.41664c-0.48471,1.07198 12.12388,2.86154 13.93603,5.76089c2.27837,3.64528 -6.05364,8.39925 -6.05364,8.39925" data-paper-data="{&quot;index&quot;:null}" fill="none" stroke-width="7" stroke-linecap="round"/></g></g></svg>